HIERARCHY
ROOT SpineBase
{
  OFFSET 0.000000 0.000000 0.000000
  CHANNELS 6 Xposition Yposition Zposition Zrotation Xrotation Yrotation
  JOINT SpineMid
  {
    OFFSET 0.000000 26.791917 0.000000
    CHANNELS 3 Zrotation Xrotation Yrotation
    JOINT SpineShoulder
    {
      OFFSET -0.072651 19.903919 -0.496462
      CHANNELS 3 Zrotation Xrotation Yrotation
      JOINT Neck
      {
        OFFSET -0.041567 6.602570 -0.422791
        CHANNELS 3 Zrotation Xrotation Yrotation
        JOINT Head
        {
          OFFSET -3.222176 11.810958 0.281799
          CHANNELS 3 Zrotation Xrotation Yrotation
          End Site
          {
            OFFSET 0 0 0
          }
        }
      }
      JOINT ShoulderLeft
      {
        OFFSET -12.085222 -4.977919 6.163781
        CHANNELS 3 Zrotation Xrotation Yrotation
        JOINT ElbowLeft
        {
          OFFSET -0.954282 -19.150706 5.434508
          CHANNELS 3 Zrotation Xrotation Yrotation
          JOINT WristLeft
          {
            OFFSET 11.078341 13.629250 -9.663823
            CHANNELS 3 Zrotation Xrotation Yrotation
            JOINT HandLeft
            {
              OFFSET -2.580934 5.912257 -7.695333
              CHANNELS 3 Zrotation Xrotation Yrotation
              JOINT HandTipLeft
              {
                OFFSET 0.877927 1.484171 -1.071949
                CHANNELS 3 Zrotation Xrotation Yrotation
                End Site
                {
                  OFFSET 0 0 0
                }
              }
              JOINT ThumbLeft
              {
                OFFSET 0.634653 -2.319128 -4.175770
                CHANNELS 3 Zrotation Xrotation Yrotation
                End Site
                {
                  OFFSET 0 0 0
                }
              }
            }
          }
        }
      }
      JOINT ShoulderRight
      {
        OFFSET 9.536115 -3.197364 -11.757320
        CHANNELS 3 Zrotation Xrotation Yrotation
        JOINT ElbowRight
        {
          OFFSET 6.708382 -18.827215 -4.020741
          CHANNELS 3 Zrotation Xrotation Yrotation
          JOINT WristRight
          {
            OFFSET -21.921776 -8.768894 -3.222209
            CHANNELS 3 Zrotation Xrotation Yrotation
            JOINT HandRight
            {
              OFFSET -9.569214 -6.380240 2.492455
              CHANNELS 3 Zrotation Xrotation Yrotation
              JOINT HandTipRight
              {
                OFFSET -5.582627 -3.367338 2.128572
                CHANNELS 3 Zrotation Xrotation Yrotation
                End Site
                {
                  OFFSET 0 0 0
                }
              }
              JOINT ThumbRight
              {
                OFFSET 3.474961 -3.335282 1.506515
                CHANNELS 3 Zrotation Xrotation Yrotation
                End Site
                {
                  OFFSET 0 0 0
                }
              }
            }
          }
        }
      }
    }
  }
  JOINT HipLeft
  {
    OFFSET -5.394257 -0.326271 0.713718
    CHANNELS 3 Zrotation Xrotation Yrotation
    JOINT KneeLeft
    {
      OFFSET 8.151215 -33.329320 7.736490
      CHANNELS 3 Zrotation Xrotation Yrotation
      JOINT AnkleLeft
      {
        OFFSET 6.020151 -31.891577 7.436767
        CHANNELS 3 Zrotation Xrotation Yrotation
        JOINT FootLeft
        {
          OFFSET -4.774817 -2.819639 -9.098147
          CHANNELS 3 Zrotation Xrotation Yrotation
          End Site
          {
            OFFSET 0 0 0
          }
        }
      }
    }
  }
  JOINT HipRight
  {
    OFFSET 4.919238 1.479669 -6.778520
    CHANNELS 3 Zrotation Xrotation Yrotation
    JOINT KneeRight
    {
      OFFSET 8.420195 -27.808877 -0.129013
      CHANNELS 3 Zrotation Xrotation Yrotation
      JOINT AnkleRight
      {
        OFFSET 8.141270 -38.151176 11.080644
        CHANNELS 3 Zrotation Xrotation Yrotation
        JOINT FootRight
        {
          OFFSET -3.178209 -4.098453 -2.549975
          CHANNELS 3 Zrotation Xrotation Yrotation
          End Site
          {
            OFFSET 0 0 0
          }
        }
      }
    }
  }
}
MOTION
Frames: 10
Frame Time: 0.033333
27.748114 70.614278 363.551966 1.023474 -0.333009 31.475870 -0.291218 -0.442842 -31.447294 -0.054254 -0.026042 0.034017 -3.775304 4.602258 1.174636 0.000000 0.000000 0.000000 4.362876 47.033030 -3.801690 73.972114 -44.957285 121.973065 137.104143 37.287059 -85.086117 -109.604651 -44.644421 -100.166069 0.000000 0.000000 0.000000 0.000000 0.000000 0.000000 -34.639434 9.767059 15.040300 -46.111613 7.659305 -6.987257 -20.368635 -8.209851 -27.907249 14.063907 -5.329532 -5.122197 0.000000 0.000000 0.000000 0.000000 0.000000 0.000000 -5.546227 1.349203 -32.916393 9.529248 1.943770 2.394655 5.415491 -19.240120 -2.400363 0.000000 0.000000 0.000000 -7.882669 -2.629614 -33.614505 5.098414 9.042198 2.423182 -6.705548 21.236225 -12.434920 0.000000 0.000000 0.000000
27.755160 70.675822 363.489392 1.016294 -0.257220 31.778321 -0.325480 -0.460918 -31.750775 -0.072508 -0.025904 0.032125 -4.310773 4.274824 1.130414 0.000000 0.000000 0.000000 4.472607 48.821934 -4.072895 79.630404 -45.042971 130.601202 137.625779 33.295069 -84.875724 -116.892913 -34.089055 -101.091905 0.000000 0.000000 0.000000 0.000000 0.000000 0.000000 -34.941885 10.294755 15.551445 -45.718064 6.476537 -7.270199 -20.680616 -4.612880 -28.385226 16.509591 -11.284275 -2.763247 0.000000 0.000000 0.000000 0.000000 0.000000 0.000000 -5.383175 1.069469 -33.194841 9.112967 2.072872 2.327651 8.494412 -24.630470 0.580906 0.000000 0.000000 0.000000 -8.100400 -2.506155 -33.905707 5.555612 8.864269 2.401374 -7.442900 25.737804 -14.506378 0.000000 0.000000 0.000000
27.765312 70.750286 363.406638 1.016320 -0.146269 32.207433 -0.368641 -0.492403 -32.180879 -0.092086 -0.033803 0.030524 -4.906565 4.014428 1.108834 0.000000 0.000000 0.000000 4.681280 49.389573 -4.193655 81.547858 -44.754488 133.870810 143.462350 29.452917 -88.241600 -122.580206 -42.802651 -106.321553 0.000000 0.000000 0.000000 0.000000 0.000000 0.000000 -33.782510 9.699829 14.679890 -44.615654 7.239572 -7.257155 -22.209309 -4.226529 -28.158770 16.872880 -6.942993 -3.842540 0.000000 0.000000 0.000000 0.000000 0.000000 0.000000 -5.814152 1.648214 -33.672549 9.987434 1.369584 2.410215 10.703605 -28.092202 1.532470 0.000000 0.000000 0.000000 -8.333572 -2.422987 -34.334727 5.878435 8.651797 2.361150 -6.912533 23.334782 -13.517734 0.000000 0.000000 0.000000
27.782452 70.818721 363.318672 1.041587 -0.020884 32.767735 -0.400316 -0.529922 -32.741128 -0.088236 -0.049952 0.031898 -5.629244 3.854944 1.117711 0.000000 0.000000 0.000000 4.201488 50.178167 -4.217636 88.523944 -46.247349 142.375709 149.132613 25.164534 -89.379070 -134.664754 -54.814602 -111.001438 0.000000 0.000000 0.000000 0.000000 0.000000 0.000000 -34.110541 9.255059 14.500693 -45.030344 7.730159 -6.865981 -19.314221 -3.781652 -28.058637 16.012768 -5.039884 -4.277499 0.000000 0.000000 0.000000 0.000000 0.000000 0.000000 -5.821657 1.633692 -34.216833 9.802488 1.303764 2.365744 7.405592 -22.491174 0.223918 0.000000 0.000000 0.000000 -8.666898 -2.447250 -34.948423 6.113108 8.629379 2.357714 -6.712430 21.999778 -12.829505 0.000000 0.000000 0.000000
27.798600 70.876194 363.229568 1.066961 0.117368 33.145253 -0.430077 -0.571645 -33.118647 -0.092138 -0.062385 0.032946 -6.251268 3.652448 1.107098 0.000000 0.000000 0.000000 3.338105 49.635213 -3.963404 94.309303 -49.135534 147.283521 154.224757 25.058764 -86.197245 -150.127487 -66.604569 -114.778791 0.000000 0.000000 0.000000 0.000000 0.000000 0.000000 -34.318564 9.079278 14.456441 -45.643208 8.408917 -6.867764 -16.287869 -4.751124 -27.692050 13.337638 -7.371389 -3.971892 0.000000 0.000000 0.000000 0.000000 0.000000 0.000000 -5.522304 1.156198 -34.529743 8.863632 1.594683 2.216120 0.608949 -9.102421 -2.386037 0.000000 0.000000 0.000000 -9.165941 -2.643279 -35.459988 6.449532 8.991137 2.443252 -6.136857 19.276401 -11.785824 0.000000 0.000000 0.000000
27.813249 70.912423 363.140822 1.091752 0.243908 33.274047 -0.451898 -0.611981 -33.247340 -0.092077 -0.077374 0.034332 -6.891380 3.345896 1.057791 0.000000 0.000000 0.000000 2.571631 49.764173 -3.828257 100.412682 -50.946299 152.908854 159.781204 23.229021 -89.145829 165.601583 -78.511192 -158.923565 0.000000 0.000000 0.000000 0.000000 0.000000 0.000000 -34.203882 9.411329 14.624281 -45.914904 9.070452 -7.614333 -13.191932 -6.380351 -26.913513 10.603631 -9.472670 -3.673515 0.000000 0.000000 0.000000 0.000000 0.000000 0.000000 -5.297732 0.727333 -34.606504 7.998491 1.800538 2.072180 -0.692798 -6.696957 -0.467849 0.000000 0.000000 0.000000 -9.477617 -2.851523 -35.688873 6.554331 9.161888 2.479870 -4.969439 16.011820 -10.626021 0.000000 0.000000 0.000000
27.825140 70.919674 363.079429 1.124931 0.332633 32.944817 -0.460160 -0.641200 -32.917569 -0.084113 -0.091635 0.036464 -7.422831 3.053834 0.996844 0.000000 0.000000 0.000000 1.939564 49.899816 -3.724796 105.863673 -52.841402 157.443435 153.995222 28.220684 -74.919678 -60.278094 -86.769382 -33.819730 0.000000 0.000000 0.000000 0.000000 0.000000 0.000000 -34.391459 9.832388 14.967873 -44.540009 8.658299 -8.474016 -15.714454 -6.861957 -26.892232 11.472823 -15.190898 -1.895732 0.000000 0.000000 0.000000 0.000000 0.000000 0.000000 -5.260829 0.350944 -34.278812 7.439184 2.056734 1.998971 -0.359751 -7.224143 0.455009 0.000000 0.000000 0.000000 -9.538298 -3.048651 -35.402260 6.423567 9.148996 2.472188 0.106658 -0.999189 -2.156224 0.000000 0.000000 0.000000
27.835281 70.899285 363.032947 1.155048 0.350156 32.370582 -0.458746 -0.675549 -32.342204 -0.068204 -0.097716 0.039095 -7.938713 2.781448 0.924764 0.000000 0.000000 0.000000 1.438933 50.039089 -3.647785 107.127630 -52.131352 158.938975 142.015956 28.993963 -74.621180 -18.629478 -80.168573 -0.957313 0.000000 0.000000 0.000000 0.000000 0.000000 0.000000 -34.511469 10.349736 15.341882 -43.462419 8.499646 -9.430132 -15.708060 -7.182582 -26.532934 11.376208 -18.341621 -0.744981 0.000000 0.000000 0.000000 0.000000 0.000000 0.000000 -5.354267 0.084555 -33.749781 7.200388 2.374479 2.000872 1.462777 -10.319216 0.352041 0.000000 0.000000 0.000000 -9.379686 -3.190854 -34.819908 6.128530 9.006492 2.434951 9.699130 -18.635674 9.244769 0.000000 0.000000 0.000000
27.845314 70.906522 363.008458 1.190971 0.388046 31.628457 -0.408723 -0.657621 -31.598584 -0.045918 -0.083116 0.042916 -8.286636 2.206373 0.757422 0.000000 0.000000 0.000000 1.212687 50.185866 -3.646018 106.401632 -50.152290 159.354601 145.921782 26.644702 -73.741261 -65.205118 -80.707483 -45.988426 0.000000 0.000000 0.000000 0.000000 0.000000 0.000000 -34.231249 10.448044 15.255190 -42.478177 8.593257 -10.055699 -15.076130 -8.204738 -25.815079 9.273552 -20.062723 -0.535834 0.000000 0.000000 0.000000 0.000000 0.000000 0.000000 -5.334323 -0.446905 -33.042561 6.684365 2.951464 1.990590 6.723030 -19.954035 3.893826 0.000000 0.000000 0.000000 -9.328524 -3.829930 -34.245364 5.544868 9.548837 2.557422 12.486283 -21.907270 11.861232 0.000000 0.000000 0.000000
27.848574 70.907158 363.038298 1.228834 0.431267 30.635516 -0.327722 -0.592576 -30.604250 -0.018257 -0.065926 0.047320 -8.494850 1.355913 0.497777 0.000000 0.000000 0.000000 0.995463 49.752958 -3.590177 102.551952 -47.676609 156.459414 133.123093 26.882105 -59.135564 -60.068018 -68.275817 -41.335235 0.000000 0.000000 0.000000 0.000000 0.000000 0.000000 -33.873055 10.272122 14.950791 -41.569100 8.486573 -10.255704 -13.117765 -7.493955 -25.229055 5.601770 -19.270453 -1.566462 0.000000 0.000000 0.000000 0.000000 0.000000 0.000000 -5.194048 -1.030912 -32.052585 6.046407 3.508541 1.958559 9.310514 -23.835695 3.847213 0.000000 0.000000 0.000000 -8.482234 -2.946595 -32.759245 5.355145 7.565256 2.080623 13.259336 -22.293436 12.879035 0.000000 0.000000 0.000000
